<?xml version="1.0" encoding="UTF-8" standalone="no"?>
<!DOCTYPE svg PUBLIC "-//W3C//DTD SVG 1.1//EN"
 "http://www.w3.org/Graphics/SVG/1.1/DTD/svg11.dtd">
<!-- Generated by graphviz version 2.43.0 (0)
 -->
<!-- Title: %3 Pages: 1 -->
<svg width="1082pt" height="332pt"
 viewBox="0.00 0.00 1081.75 332.00" xmlns="http://www.w3.org/2000/svg" xmlns:xlink="http://www.w3.org/1999/xlink">
<g id="graph0" class="graph" transform="scale(1 1) rotate(0) translate(4 328)">
<title>%3</title>
<polygon fill="white" stroke="transparent" points="-4,4 -4,-328 1077.75,-328 1077.75,4 -4,4"/>
<!-- [root] google_compute_instance.tf&#45;instance (expand) -->
<g id="node1" class="node">
<title>[root] google_compute_instance.tf&#45;instance (expand)</title>
<polygon fill="none" stroke="black" points="488.82,-180 210.82,-180 210.82,-144 488.82,-144 488.82,-180"/>
<text text-anchor="middle" x="349.82" y="-158.3" font-family="Times,serif" font-size="14.00">google_compute_instance.tf&#45;instance</text>
</g>
<!-- [root] provider[&quot;registry.terraform.io/hashicorp/google&quot;] -->
<g id="node3" class="node">
<title>[root] provider[&quot;registry.terraform.io/hashicorp/google&quot;]</title>
<polygon fill="none" stroke="black" points="487.82,-108 144.29,-90 487.82,-72 831.35,-90 487.82,-108"/>
<text text-anchor="middle" x="487.82" y="-86.3" font-family="Times,serif" font-size="14.00">provider[&quot;registry.terraform.io/hashicorp/google&quot;]</text>
</g>
<!-- [root] google_compute_instance.tf&#45;instance (expand)&#45;&gt;[root] provider[&quot;registry.terraform.io/hashicorp/google&quot;] -->
<g id="edge1" class="edge">
<title>[root] google_compute_instance.tf&#45;instance (expand)&#45;&gt;[root] provider[&quot;registry.terraform.io/hashicorp/google&quot;]</title>
<path fill="none" stroke="black" d="M383.58,-143.88C403.1,-133.98 427.75,-121.47 448.18,-111.11"/>
<polygon fill="black" stroke="black" points="449.9,-114.16 457.24,-106.51 446.74,-107.92 449.9,-114.16"/>
</g>
<!-- [root] google_compute_network.main (expand) -->
<g id="node2" class="node">
<title>[root] google_compute_network.main (expand)</title>
<polygon fill="none" stroke="black" points="744.32,-180 507.32,-180 507.32,-144 744.32,-144 744.32,-180"/>
<text text-anchor="middle" x="625.82" y="-158.3" font-family="Times,serif" font-size="14.00">google_compute_network.main</text>
</g>
<!-- [root] google_compute_network.main (expand)&#45;&gt;[root] provider[&quot;registry.terraform.io/hashicorp/google&quot;] -->
<g id="edge2" class="edge">
<title>[root] google_compute_network.main (expand)&#45;&gt;[root] provider[&quot;registry.terraform.io/hashicorp/google&quot;]</title>
<path fill="none" stroke="black" d="M592.06,-143.88C572.55,-133.98 547.9,-121.47 527.47,-111.11"/>
<polygon fill="black" stroke="black" points="528.91,-107.92 518.41,-106.51 525.74,-114.16 528.91,-107.92"/>
</g>
<!-- [root] var.zone -->
<g id="node5" class="node">
<title>[root] var.zone</title>
<polygon fill="none" stroke="black" points="519.82,-36 449.82,-36 449.82,0 525.82,0 525.82,-30 519.82,-36"/>
<polyline fill="none" stroke="black" points="519.82,-36 519.82,-30 "/>
<polyline fill="none" stroke="black" points="525.82,-30 519.82,-30 "/>
<text text-anchor="middle" x="487.82" y="-14.3" font-family="Times,serif" font-size="14.00">var.zone</text>
</g>
<!-- [root] provider[&quot;registry.terraform.io/hashicorp/google&quot;]&#45;&gt;[root] var.zone -->
<g id="edge8" class="edge">
<title>[root] provider[&quot;registry.terraform.io/hashicorp/google&quot;]&#45;&gt;[root] var.zone</title>
<path fill="none" stroke="black" d="M487.82,-71.7C487.82,-63.98 487.82,-54.71 487.82,-46.11"/>
<polygon fill="black" stroke="black" points="491.32,-46.1 487.82,-36.1 484.32,-46.1 491.32,-46.1"/>
</g>
<!-- [root] var.region -->
<g id="node4" class="node">
<title>[root] var.region</title>
<polygon fill="none" stroke="black" points="889.32,-180 806.32,-180 806.32,-144 895.32,-144 895.32,-174 889.32,-180"/>
<polyline fill="none" stroke="black" points="889.32,-180 889.32,-174 "/>
<polyline fill="none" stroke="black" points="895.32,-174 889.32,-174 "/>
<text text-anchor="middle" x="850.82" y="-158.3" font-family="Times,serif" font-size="14.00">var.region</text>
</g>
<!-- [root] meta.count&#45;boundary (EachMode fixup) -->
<g id="node6" class="node">
<title>[root] meta.count&#45;boundary (EachMode fixup)</title>
<ellipse fill="none" stroke="black" cx="850.82" cy="-234" rx="222.86" ry="18"/>
<text text-anchor="middle" x="850.82" y="-230.3" font-family="Times,serif" font-size="14.00">[root] meta.count&#45;boundary (EachMode fixup)</text>
</g>
<!-- [root] meta.count&#45;boundary (EachMode fixup)&#45;&gt;[root] google_compute_instance.tf&#45;instance (expand) -->
<g id="edge3" class="edge">
<title>[root] meta.count&#45;boundary (EachMode fixup)&#45;&gt;[root] google_compute_instance.tf&#45;instance (expand)</title>
<path fill="none" stroke="black" d="M744.57,-218.15C667.92,-207.44 563.93,-192.91 481.92,-181.46"/>
<polygon fill="black" stroke="black" points="482.17,-177.96 471.78,-180.04 481.2,-184.89 482.17,-177.96"/>
</g>
<!-- [root] meta.count&#45;boundary (EachMode fixup)&#45;&gt;[root] google_compute_network.main (expand) -->
<g id="edge4" class="edge">
<title>[root] meta.count&#45;boundary (EachMode fixup)&#45;&gt;[root] google_compute_network.main (expand)</title>
<path fill="none" stroke="black" d="M797.79,-216.5C765.74,-206.53 724.66,-193.75 690.69,-183.18"/>
<polygon fill="black" stroke="black" points="691.44,-179.75 680.85,-180.12 689.36,-186.43 691.44,-179.75"/>
</g>
<!-- [root] meta.count&#45;boundary (EachMode fixup)&#45;&gt;[root] var.region -->
<g id="edge5" class="edge">
<title>[root] meta.count&#45;boundary (EachMode fixup)&#45;&gt;[root] var.region</title>
<path fill="none" stroke="black" d="M850.82,-215.7C850.82,-207.98 850.82,-198.71 850.82,-190.11"/>
<polygon fill="black" stroke="black" points="854.32,-190.1 850.82,-180.1 847.32,-190.1 854.32,-190.1"/>
</g>
<!-- [root] provider[&quot;registry.terraform.io/hashicorp/google&quot;] (close) -->
<g id="node7" class="node">
<title>[root] provider[&quot;registry.terraform.io/hashicorp/google&quot;] (close)</title>
<ellipse fill="none" stroke="black" cx="304.82" cy="-234" rx="304.65" ry="18"/>
<text text-anchor="middle" x="304.82" y="-230.3" font-family="Times,serif" font-size="14.00">[root] provider[&quot;registry.terraform.io/hashicorp/google&quot;] (close)</text>
</g>
<!-- [root] provider[&quot;registry.terraform.io/hashicorp/google&quot;] (close)&#45;&gt;[root] google_compute_instance.tf&#45;instance (expand) -->
<g id="edge6" class="edge">
<title>[root] provider[&quot;registry.terraform.io/hashicorp/google&quot;] (close)&#45;&gt;[root] google_compute_instance.tf&#45;instance (expand)</title>
<path fill="none" stroke="black" d="M315.95,-215.7C321.18,-207.56 327.52,-197.69 333.3,-188.7"/>
<polygon fill="black" stroke="black" points="336.36,-190.41 338.83,-180.1 330.48,-186.62 336.36,-190.41"/>
</g>
<!-- [root] provider[&quot;registry.terraform.io/hashicorp/google&quot;] (close)&#45;&gt;[root] google_compute_network.main (expand) -->
<g id="edge7" class="edge">
<title>[root] provider[&quot;registry.terraform.io/hashicorp/google&quot;] (close)&#45;&gt;[root] google_compute_network.main (expand)</title>
<path fill="none" stroke="black" d="M380.49,-216.5C427.57,-206.23 488.32,-192.99 537.58,-182.24"/>
<polygon fill="black" stroke="black" points="538.57,-185.61 547.59,-180.06 537.08,-178.77 538.57,-185.61"/>
</g>
<!-- [root] root -->
<g id="node8" class="node">
<title>[root] root</title>
<ellipse fill="none" stroke="black" cx="577.82" cy="-306" rx="58.49" ry="18"/>
<text text-anchor="middle" x="577.82" y="-302.3" font-family="Times,serif" font-size="14.00">[root] root</text>
</g>
<!-- [root] root&#45;&gt;[root] meta.count&#45;boundary (EachMode fixup) -->
<g id="edge9" class="edge">
<title>[root] root&#45;&gt;[root] meta.count&#45;boundary (EachMode fixup)</title>
<path fill="none" stroke="black" d="M621.38,-293.83C663.37,-283.07 727.7,-266.57 777.57,-253.78"/>
<polygon fill="black" stroke="black" points="778.52,-257.15 787.34,-251.28 776.78,-250.37 778.52,-257.15"/>
</g>
<!-- [root] root&#45;&gt;[root] provider[&quot;registry.terraform.io/hashicorp/google&quot;] (close) -->
<g id="edge10" class="edge">
<title>[root] root&#45;&gt;[root] provider[&quot;registry.terraform.io/hashicorp/google&quot;] (close)</title>
<path fill="none" stroke="black" d="M534.26,-293.83C492.63,-283.16 429.03,-266.85 379.34,-254.11"/>
<polygon fill="black" stroke="black" points="380.16,-250.7 369.6,-251.61 378.42,-257.48 380.16,-250.7"/>
</g>
</g>
</svg>
